# xmcd CD database file
#
# Track frame offsets:
#	150
#	42818
#	90971
#	123110
#	158064
#	206198
#	222312
#	234239
#	257256
#	281004
#	302386
#
# Disc length: 4474 seconds
#
# Revision: 0
# Processed by: cddbd v1.5.2PL0 Copyright (c) Steve Scherf et al.
# Submitted via: CDex 1.79
#
DISCID=8411780b
DTITLE=Brad Mehldau - Ten years solo live 3
DYEAR=2015
DGENRE=Jazz
TTITLE0=Lost Chords
TTITLE1=Countdown
TTITLE2=On the Street Where You Live
TTITLE3=Think of One
TTITLE4=Zingaro/Paris
TTITLE5=John Boy
TTITLE6=Intermezzo in B-flat major, Op. 76: No.4
TTITLE7=Junk
TTITLE8=Los Angeles II
TTITLE9=Monk's Mood
TTITLE10=Knives Out
EXTD=YEAR: 2015
EXTT0=
EXTT1=
EXTT2=
EXTT3=
EXTT4=
EXTT5=
EXTT6=
EXTT7=
EXTT8=
EXTT9=
EXTT10=
PLAYORDER=
